<svg xmlns="http://www.w3.org/2000/svg" xmlns:xlink="http://www.w3.org/1999/xlink" width="0" height="0" style="position:absolute">
	
		<symbol id="edit" viewBox="0 0 24 24">
			<path d="M0 0h24v24H0V0z" fill="none"></path><path d="M14.06 9.02l.92.92L5.92 19H5v-.92l9.06-9.06M17.66 3c-.25 0-.51.1-.7.29l-1.83 1.83 3.75 3.75 1.83-1.83a.996.996 0 0 0 0-1.41l-2.34-2.34c-.2-.2-.45-.29-.71-.29zm-3.6 3.19L3 17.25V21h3.75L17.81 9.94l-3.75-3.75z"></path>
		</symbol>
	
		<symbol id="help" viewBox="0 0 24 24">
			<path d="M0 0h24v24H0V0z" fill="none"></path><path d="M11 18h2v-2h-2v2zm1-16C6.48 2 2 6.48 2 12s4.48 10 10 10 10-4.48 10-10S17.52 2 12 2zm0 18c-4.41 0-8-3.59-8-8s3.59-8 8-8 8 3.59 8 8-3.59 8-8 8zm0-14c-2.21 0-4 1.79-4 4h2c0-1.1.9-2 2-2s2 .9 2 2c0 2-3 1.75-3 5h2c0-2.25 3-2.5 3-5 0-2.21-1.79-4-4-4z"></path>
		</symbol>
	
		<symbol id="trash" viewBox="0 0 24 24">
			<path d="M0 0h24v24H0V0z" fill="none"></path><path d="M16 9v10H8V9h8m-1.5-6h-5l-1 1H5v2h14V4h-3.5l-1-1zM18 7H6v12c0 1.1.9 2 2 2h8c1.1 0 2-.9 2-2V7z"></path>
		</symbol>
	
</svg>
